<svg width="32" height="36" viewBox="0 0 32 36" xmlns="http://www.w3.org/2000/svg">
  <title>
    a-cat
  </title>
  <g id="Page-1" fill="none" fill-rule="evenodd">
    <g id="a-cat">
      <path d="M21 29.648C28.18 27.798 34 23.03 34 19c0-4.03-5.82-8.797-13-10.648C13.82 6.5 8 11.268 8 19c0 7.732 5.82 12.5 13 10.648z" id="Oval-2" fill="#4A4A4A" transform="rotate(-75 21 19)"/>
      <ellipse id="right-paw" fill="#4A4A4A" cx="25" cy="33" rx="3" ry="2"/>
      <ellipse id="left-paw" fill="#4A4A4A" transform="rotate(12 17 33)" cx="17" cy="33" rx="3" ry="2"/>
      <path d="M12.48 26.986c-1.746-.968-3.328-.821-4.746.441-2.127 1.894.283 3.21-1.74 5.336-.588.617-2.322 1.007-5.202 1.17" id="Path-2" stroke="#4A4A4A" stroke-width="2"/>
      <g id="cat" transform="translate(11)" fill-rule="nonzero">
        <circle id="head" fill="#4A4A4A" cx="10.5" cy="9.5" r="8.5"/>
        <g id="eye-left" transform="translate(3 4)">
          <ellipse id="b-eye-right" fill="#9B9B9B" transform="rotate(46 4 4)" cx="4" cy="4" rx="2.884" ry="2.76"/>
          <ellipse id="eye-right" fill="#B8E986" transform="rotate(26 3.938 4)" cx="3.938" cy="4" rx="2.636" ry="2.264"/>
          <ellipse id="in-eye-left" fill="#000" cx="4.031" cy="3.225" rx="1" ry="1.488"/>
        </g>
        <g id="eye-right" transform="matrix(-1 0 0 1 18 4)">
          <ellipse id="b-eye-right" fill="#9B9B9B" transform="rotate(46 4 4)" cx="4" cy="4" rx="2.884" ry="2.76"/>
          <ellipse id="Oval" fill="#B8E986" transform="rotate(26 3.938 4)" cx="3.938" cy="4" rx="2.636" ry="2.264"/>
          <ellipse id="in-eye-right" fill="#000" cx="3.969" cy="3.225" rx="1" ry="1.488"/>
        </g>
        <path d="M2.146 10c.06 1.041.008 1.68-.154 1.918L1 13.39c.795-.111 1.386-.236 1.773-.374.388-.137.902-.406 1.544-.805-.211.723-.402 1.228-.572 1.514-.17.285-.532.71-1.087 1.276 1.058-.278 1.787-.514 2.188-.707.402-.194.786-.495 1.154-.904" id="hair-left" fill="#4A4A4A"/>
        <path d="M16.146 11c.06 1.041.008 1.68-.154 1.918L15 14.39c.795-.111 1.386-.236 1.773-.374.388-.137.902-.406 1.544-.805-.211.723-.402 1.228-.572 1.514-.17.285-.532.71-1.087 1.276 1.058-.278 1.787-.514 2.188-.707.402-.194.786-.495 1.154-.904" id="hair-right" fill="#4A4A4A" transform="matrix(-1 0 0 1 35 0)"/>
        <path d="M1.688 9c.035.625.004 1.008-.093 1.15L1 11.035c.477-.067.831-.142 1.064-.225.233-.082.541-.243.926-.483-.127.434-.24.737-.343.908-.102.172-.32.427-.652.766.634-.167 1.072-.308 1.313-.424.24-.116.471-.297.692-.542" id="hair-uleft" fill="#4A4A4A" transform="rotate(31 2.5 10.5)"/>
        <path d="M17.688 9c.035.625.004 1.008-.093 1.15l-.595.884c.477-.067.831-.142 1.064-.225.233-.082.541-.243.926-.483-.127.434-.24.737-.343.908-.102.172-.32.427-.652.766.634-.167 1.072-.308 1.313-.424.24-.116.471-.297.692-.542" id="hair-uriught" fill="#4A4A4A" transform="scale(-1 1) rotate(31 0 -56.209)"/>
        <g id="ear-left">
          <path d="M2.443 7C1.438 6.32.764 5.68.423 5.083.08 4.486-.054 2.792.019 0c1.008.422 1.908.77 2.7 1.045C3.51 1.32 4.604 2.203 6 3.693" id="Path-3" fill="#4A4A4A"/>
          <path d="M1.922 5.526C1.298 5.02.89 4.504.698 3.976.506 3.45.368 2.323.284.595c.45.284.945.543 1.487.777.541.234 1.46.821 2.758 1.76-.865.313-1.475.635-1.83.964-.353.33-.613.806-.777 1.431z" id="Path-4" fill="#9B9B9B"/>
        </g>
        <g id="ear-right" transform="matrix(-1 0 0 1 20 0)">
          <path d="M2.443 7C1.438 6.32.764 5.68.423 5.083.08 4.486-.054 2.792.019 0c1.008.422 1.908.77 2.7 1.045C3.51 1.32 4.604 2.203 6 3.693" id="Path-3" fill="#4A4A4A"/>
          <path d="M1.922 5.526C1.298 5.02.89 4.504.698 3.976.506 3.45.368 2.323.284.595c.45.284.945.543 1.487.777.541.234 1.46.821 2.758 1.76-.865.313-1.475.635-1.83.964-.353.33-.613.806-.777 1.431z" id="Path-4" fill="#9B9B9B"/>
        </g>
        <g id="nose" transform="translate(9 12)" fill="#A885AC">
          <path d="M1.006 1.95c-.273-.222-.463-.411-.571-.57C.342 1.246.204.98.021.583-.022.487.003.364.078.309A.147.147 0 0 1 .1.295C.494.098.796 0 1.006 0c.21 0 .496.1.856.299.08.044.116.162.081.263a.23.23 0 0 1-.001.004c-.144.39-.265.662-.362.815-.113.176-.304.365-.574.568z" id="path-1"/>
        </g>
      </g>
    </g>
  </g>
</svg>
