<?xml version="1.0" encoding="UTF-8"?>
<svg width="340px" height="297px" viewBox="0 0 340 297" version="1.1" xmlns="http://www.w3.org/2000/svg" xmlns:xlink="http://www.w3.org/1999/xlink">
    <!-- Generator: Sketch 47.1 (45422) - http://www.bohemiancoding.com/sketch -->
    <title>cat</title>
    <desc>Created with Sketch.</desc>
    <defs>
        <path d="M177.111967,229.241896 C171.935499,225.92166 168.319722,223.079107 166.264636,220.714236 C164.491744,218.674096 161.872896,214.679391 158.40809,208.730121 L158.408092,208.73012 C157.574257,207.298378 158.058957,205.461766 159.490698,204.627932 C159.621911,204.551515 159.758736,204.48517 159.899994,204.429469 C167.388763,201.47649 173.126087,200 177.111967,200 C181.121181,200 186.541917,201.493828 193.374174,204.481485 L193.374171,204.481492 C194.892226,205.145317 195.584715,206.91408 194.92089,208.432134 C194.911345,208.45396 194.901542,208.475672 194.89148,208.497264 C192.164164,214.350281 189.872329,218.422604 188.015976,220.714236 C185.880926,223.349912 182.246256,226.192466 177.111967,229.241896 Z" id="path-1"></path>
    </defs>
    <g id="Page-1" stroke="none" stroke-width="1" fill="none" fill-rule="evenodd">
        <g id="cat" transform="translate(-9.000000, 0.000000)">
            <ellipse id="head" fill="#CFCBCB" cx="178" cy="156" rx="144" ry="140"></ellipse>
            <g id="eye-left" transform="translate(48.000000, 71.000000)">
                <ellipse id="b-eye-right" fill="#9B9B9B" transform="translate(64.500000, 64.500000) rotate(46.000000) translate(-64.500000, -64.500000) " cx="64.5" cy="64.5" rx="46.5" ry="44.5"></ellipse>
                <ellipse id="eye-right" fill="#A5C4E8" transform="translate(63.500000, 64.500000) rotate(26.000000) translate(-63.500000, -64.500000) " cx="63.5" cy="64.5" rx="42.5" ry="36.5"></ellipse>
                <ellipse id="in-eye-left" fill="#000000" cx="65" cy="52" rx="7" ry="24"></ellipse>
            </g>
            <g id="eye-right" transform="translate(246.500000, 135.500000) scale(-1, 1) translate(-246.500000, -135.500000) translate(182.000000, 71.000000)">
                <ellipse id="b-eye-right" fill="#9B9B9B" transform="translate(64.500000, 64.500000) rotate(46.000000) translate(-64.500000, -64.500000) " cx="64.5" cy="64.5" rx="46.5" ry="44.5"></ellipse>
                <ellipse fill="#A5C4E8" transform="translate(63.500000, 64.500000) rotate(26.000000) translate(-63.500000, -64.500000) " cx="63.5" cy="64.5" rx="42.5" ry="36.5"></ellipse>
                <ellipse id="in-eye-right" fill="#000000" cx="64" cy="52" rx="7" ry="24"></ellipse>
            </g>
            <path d="M56.9830517,215 C57.9155739,230.887679 57.1126341,240.645578 54.5742323,244.273696 C52.0358306,247.901813 46.8444198,255.386249 39,266.727002 C51.4714024,265.026087 60.7484582,263.124068 66.8311675,261.020948 C72.9138767,258.917827 80.9867696,254.821032 91.0498462,248.730563 C87.7404299,259.767713 84.7527011,267.467132 82.0866599,271.82882 C79.4206186,276.190508 73.733373,282.683492 65.0249231,291.307772 C81.6203863,287.063538 93.0668847,283.465609 99.3644182,280.513983 C105.661952,277.562358 111.697146,272.966697 117.470001,266.727002" id="hair-left" fill="#CFCBCB"></path>
            <path d="M256.983052,220 C257.915574,235.887679 257.112634,245.645578 254.574232,249.273696 C252.035831,252.901813 246.84442,260.386249 239,271.727002 C251.471402,270.026087 260.748458,268.124068 266.831167,266.020948 C272.913877,263.917827 280.98677,259.821032 291.049846,253.730563 C287.74043,264.767713 284.752701,272.467132 282.08666,276.82882 C279.420619,281.190508 273.733373,287.683492 265.024923,296.307772 C281.620386,292.063538 293.066885,288.465609 299.364418,285.513983 C305.661952,282.562358 311.697146,277.966697 317.470001,271.727002" id="hair-right" fill="#CFCBCB" transform="translate(278.235001, 258.153886) scale(-1, 1) translate(-278.235001, -258.153886) "></path>
            <path d="M21.8502693,174.142112 C22.4638058,184.59513 21.9355258,191.015167 20.2654292,193.402223 C18.5953327,195.789279 15.1797357,200.713531 10.0186384,208.174979 C18.2239771,207.055892 24.327652,205.804493 28.329663,204.420781 C32.331674,203.03707 37.6430911,200.341657 44.2639145,196.33454 C42.0865425,203.596238 40.1208192,208.661935 38.3667445,211.53163 C36.6126698,214.401326 32.8708471,218.67327 27.1412764,224.347462 C38.059968,221.555044 45.5909893,219.187849 49.7343402,217.245879 C53.877691,215.30391 57.8484404,212.280276 61.6465884,208.174979" id="hair-uleft" fill="#CFCBCB" transform="translate(35.832613, 199.244787) rotate(31.000000) translate(-35.832613, -199.244787) "></path>
            <path d="M308.073385,161.709697 C308.686921,172.162715 308.158641,178.582752 306.488544,180.969808 C304.818448,183.356864 301.402851,188.281116 296.241754,195.742564 C304.447092,194.623476 310.550767,193.372077 314.552778,191.988366 C318.554789,190.604655 323.866206,187.909241 330.48703,183.902125 C328.309658,191.163823 326.343934,196.229519 324.58986,199.099215 C322.835785,201.96891 319.093962,206.240854 313.364392,211.915047 C324.283083,209.122628 331.814105,206.755434 335.957455,204.813464 C340.100806,202.871494 344.071556,199.847861 347.869704,195.742564" id="hair-uriught" fill="#CFCBCB" transform="translate(322.055729, 186.812372) scale(-1, 1) rotate(31.000000) translate(-322.055729, -186.812372) "></path>
            <g id="ear-left" transform="translate(15.000000, 0.000000)">
                <path d="M41.5367404,114 C24.4453438,102.914427 12.9943008,92.5091924 7.18361119,82.7842959 C1.37292162,73.0593994 -0.912648855,45.4646341 0.326899755,0 C17.4596067,6.8700031 32.756875,12.5432211 46.2187048,17.0196541 C59.6805346,21.4960871 78.2742997,35.8709901 102,60.1443632" id="Path-3" fill="#CFCBCB"></path>
                <path d="M32.6669547,90 C22.0601352,81.7605965 15.124204,73.348881 11.8591608,64.7648534 C8.59411772,56.1808259 6.25053022,37.8186935 4.82839836,9.67845631 C12.4688347,14.2992137 20.8928168,18.5168006 30.1003446,22.331217 C39.3078724,26.1456334 54.9410909,35.7018944 77,51 C62.2825764,56.0958984 51.915102,61.3252071 45.8975767,66.6879263 C39.8800515,72.0506455 35.4698441,79.8213367 32.6669547,90 Z" id="Path-4" fill="#9B9B9B"></path>
            </g>
            <g id="ear-right" transform="translate(287.000000, 57.000000) scale(-1, 1) translate(-287.000000, -57.000000) translate(236.000000, 0.000000)">
                <path d="M41.5367404,114 C24.4453438,102.914427 12.9943008,92.5091924 7.18361119,82.7842959 C1.37292162,73.0593994 -0.912648855,45.4646341 0.326899755,0 C17.4596067,6.8700031 32.756875,12.5432211 46.2187048,17.0196541 C59.6805346,21.4960871 78.2742997,35.8709901 102,60.1443632" id="Path-3" fill="#CFCBCB"></path>
                <path d="M32.6669547,90 C22.0601352,81.7605965 15.124204,73.348881 11.8591608,64.7648534 C8.59411772,56.1808259 6.25053022,37.8186935 4.82839836,9.67845631 C12.4688347,14.2992137 20.8928168,18.5168006 30.1003446,22.331217 C39.3078724,26.1456334 54.9410909,35.7018944 77,51 C62.2825764,56.0958984 51.915102,61.3252071 45.8975767,66.6879263 C39.8800515,72.0506455 35.4698441,79.8213367 32.6669547,90 Z" id="Path-4" fill="#9B9B9B"></path>
            </g>
            <g id="mouth" transform="translate(143.000000, 228.000000)" stroke="#979797">
                <path d="M0,0 C0,9.38884075 7.61115925,17 17,17 L17,17 C26.3888407,17 34,9.38884075 34,0" id="Oval"></path>
                <path d="M34,0 C34,9.38884075 41.6111593,17 51,17 L51,17 C60.3888407,17 68,9.38884075 68,0" id="Oval"></path>
            </g>
            <g id="stache-left" transform="translate(58.000000, 201.000000)" stroke="#979797">
                <path d="M100,33.4684452 C81.4355259,29.7814995 67.7369315,28.3761475 58.904217,29.2523892 C50.0715025,30.1286309 35.1034301,34.3778345 14,42" id="Path-2"></path>
                <path d="M104,30 C87.7388825,19.2801129 74.0435864,12.3149567 62.9141115,9.10453123 C51.7846367,5.8941058 30.8132662,2.85926206 0,0" id="Path-5"></path>
                <path d="M97,30 C80.4307594,24.006271 67.2411535,20.2951947 57.4311825,18.866771 C47.6212115,17.4383474 31.1441507,16.8296791 8,17.0407662" id="Path-6"></path>
            </g>
            <g id="stache-right" transform="translate(243.000000, 222.000000) scale(-1, 1) translate(-243.000000, -222.000000) translate(191.000000, 201.000000)" stroke="#979797">
                <path d="M100,33.4684452 C81.4355259,29.7814995 67.7369315,28.3761475 58.904217,29.2523892 C50.0715025,30.1286309 35.1034301,34.3778345 14,42" id="Path-2"></path>
                <path d="M104,30 C87.7388825,19.2801129 74.0435864,12.3149567 62.9141115,9.10453123 C51.7846367,5.8941058 30.8132662,2.85926206 0,0" id="Path-5"></path>
                <path d="M97,30 C80.4307594,24.006271 67.2411535,20.2951947 57.4311825,18.866771 C47.6212115,17.4383474 31.1441507,16.8296791 8,17.0407662" id="Path-6"></path>
            </g>
            <mask id="mask-2" fill="white">
                <use xlink:href="#path-1"></use>
            </mask>
            <use id="nose" fill="#A885AC" xlink:href="#path-1"></use>
        </g>
    </g>
</svg>